<?xml version="1.0" encoding="UTF-8"?>
<svg width="202px" height="207px" viewBox="0 0 202 207" version="1.1" xmlns="http://www.w3.org/2000/svg" xmlns:xlink="http://www.w3.org/1999/xlink">
    <!-- Generator: Sketch 50.2 (55047) - http://www.bohemiancoding.com/sketch -->
    <title>Group 3@svg</title>
    <desc>Created with Sketch.</desc>
    <defs>
        <polygon id="path-1" points="0 205.356522 201.594447 205.356522 201.594447 0.227945739 0 0.227945739"></polygon>
    </defs>
    <g id="lumeos" stroke="none" stroke-width="1" fill="none" fill-rule="evenodd">
        <g id="Onboarding" transform="translate(-87.000000, -237.000000)">
            <g id="Group-2" transform="translate(-185.000000, -302.000000)">
                <g id="Group-3" transform="translate(272.000000, 542.000000)">
                    <g id="icon_privacy">
                        <g id="Group" transform="translate(0.000000, -4.107130)">
                            <path d="M164.775598,57.9666015 L192.531355,57.9666015" id="Stroke-1" stroke="#CAF8F9" stroke-width="2.4192"></path>
                            <path d="M201.594242,57.9666015 L196.635219,57.9666015" id="Stroke-2" stroke="#CAF8F9" stroke-width="2.4192"></path>
                            <path d="M171.613182,41.3479196 L181.161918,41.3479196" id="Stroke-4" stroke="#CAF8F9" stroke-width="2.4192"></path>
                            <path d="M176.387139,46.1259498 L176.387139,36.5686573" id="Stroke-5" stroke="#CAF8F9" stroke-width="2.4192"></path>
                            <path d="M147.423326,41.3479196 L168.293488,41.3479196" id="Stroke-6" stroke="#CAF8F9" stroke-width="2.4192"></path>
                            <path d="M14.3214619,31.4669852 L4.7747781,31.4669852" id="Stroke-7" stroke="#CAF8F9" stroke-width="2.4192"></path>
                            <path d="M9.54770965,36.2450154 L9.54770965,26.6877229" id="Stroke-9" stroke="#CAF8F9" stroke-width="2.4192"></path>
                            <g id="Group-14" transform="translate(0.000000, 83.968434)" stroke="#CAF8F9" stroke-width="2.4192">
                                <path d="M8.14535453,4.60409322 L0,4.60409322" id="Stroke-10"></path>
                                <path d="M4.07267727,8.68042017 L4.07267727,0.527766261" id="Stroke-12"></path>
                            </g>
                            <path d="M17.6048399,31.4669852 L21.8231898,31.4669852" id="Stroke-15" stroke="#CAF8F9" stroke-width="2.4192"></path>
                            <path d="M55.3406056,31.4669852 L24.8642589,31.4669852" id="Stroke-16" stroke="#CAF8F9" stroke-width="2.4192"></path>
                            <g id="Group-94" transform="translate(0.000000, 1.825825)">
                                <path d="M188.447393,116.250889 C188.447393,165.431723 148.615174,205.299638 99.4783737,205.299638 C50.3436255,205.299638 10.5114056,165.431723 10.5114056,116.250889 C10.5114056,67.0700561 50.3436255,27.2021409 99.4783737,27.2021409 C148.615174,27.2021409 188.447393,67.0700561 188.447393,116.250889" id="Fill-17" fill="#FEFEFF"></path>
                                <path d="M168.508099,170.944929 L30.4474173,170.944929 C30.4474173,170.944929 55.9360166,204.535096 99.4798099,203.816348 C99.4798099,203.816348 135.526594,207.742765 168.508099,170.944929" id="Fill-19" fill="#F3FDFE"></path>
                                <path d="M95.7142761,198.092445 C65.9683441,198.583248 44.2261975,183.898203 32.5908561,173.488681 C39.5482609,181.288121 63.260065,204.413319 99.4791944,203.815732 C99.4791944,203.815732 135.52803,207.742148 168.507484,170.944313 L161.166406,170.944313 C128.589091,201.651274 95.7142761,198.092445 95.7142761,198.092445" id="Fill-21" fill="#E1E8EF"></path>
                                <path d="M188.447393,114.768421 C188.447393,163.947201 148.615174,203.817169 99.4783737,203.817169 C50.3436255,203.817169 10.5114056,163.947201 10.5114056,114.768421 C10.5114056,65.5875873 50.3436255,25.7196722 99.4783737,25.7196722 C148.615174,25.7196722 188.447393,65.5875873 188.447393,114.768421 Z" id="Stroke-23" stroke="#4BD4DF" stroke-width="2.4192"></path>
                                <path d="M20.4813606,170.944929 L176.445408,170.944929" id="Stroke-25" stroke="#4BD4DF" stroke-width="2.4192"></path>
                                <path d="M184.54501,170.944929 L178.654502,170.944929" id="Stroke-27" stroke="#4BD4DF" stroke-width="2.4192"></path>
                                <path d="M19.009452,170.944929 L13.6708594,170.944929" id="Stroke-29" stroke="#4BD4DF" stroke-width="2.4192"></path>
                                <path d="M135.530082,170.944929 L64.8070669,170.944929 C60.1332337,170.944929 56.3088154,167.117084 56.3088154,162.439062 L56.3088154,26.6285802 C56.3088154,21.9526122 60.1332337,18.1247666 64.8070669,18.1247666 L135.530082,18.1247666 C140.203915,18.1247666 144.028334,21.9526122 144.028334,26.6285802 L144.028334,162.439062 C144.028334,167.117084 140.203915,170.944929 135.530082,170.944929" id="Fill-31" fill="#FFFFFF"></path>
                                <path d="M134.883173,170.944929 L65.4527452,170.944929 C60.4239634,170.944929 56.3081998,166.825478 56.3081998,161.792189 L56.3081998,27.2775068 C56.3081998,22.2442184 60.4239634,18.1247666 65.4527452,18.1247666 L134.883173,18.1247666 C139.911955,18.1247666 144.027718,22.2442184 144.027718,27.2775068 L144.027718,161.792189 C144.027718,166.825478 139.911955,170.944929 134.883173,170.944929 Z" id="Stroke-33" stroke="#4BD4DF" stroke-width="2.4192"></path>
                                <path d="M90.2283696,28.4145658 L110.878998,28.4145658" id="Stroke-35" stroke="#4BD4DF" stroke-width="2.4192"></path>
                                <mask id="mask-2" fill="white">
                                    <use xlink:href="#path-1"></use>
                                </mask>
                                <g id="Clip-38"></g>
                                <polygon id="Fill-37" fill="#F3FDFE" mask="url(#mask-2)" points="60.4951583 152.842752 139.462011 152.842752 139.462011 36.9374776 60.4951583 36.9374776"></polygon>
                                <path d="M119.387508,28.4145658 C119.387508,29.0922424 118.839697,29.6405443 118.162627,29.6405443 C117.485557,29.6405443 116.935694,29.0922424 116.935694,28.4145658 C116.935694,27.7368893 117.485557,27.1885874 118.162627,27.1885874 C118.839697,27.1885874 119.387508,27.7368893 119.387508,28.4145658" id="Fill-39" fill="#4BD4DF" mask="url(#mask-2)"></path>
                                <path d="M115.699734,75.7860029 C115.699734,84.5752621 108.580243,91.7011334 99.7988534,91.7011334 C91.0174636,91.7011334 83.9000241,84.5752621 83.9000241,75.7860029 C83.9000241,66.9967438 91.0174636,59.8708725 99.7988534,59.8708725 C108.580243,59.8708725 115.699734,66.9967438 115.699734,75.7860029" id="Fill-40" fill="#4BD4DF" mask="url(#mask-2)"></path>
                                <polygon id="Fill-41" fill="#E1E8EF" mask="url(#mask-2)" points="66.3261652 108.629493 132.9129 108.629493 132.9129 97.5464014 66.3261652 97.5464014"></polygon>
                                <polygon id="Fill-42" fill="#E1E8EF" mask="url(#mask-2)" points="66.3261652 121.792846 132.9129 121.792846 132.9129 110.709754 66.3261652 110.709754"></polygon>
                                <polygon id="Fill-43" fill="#4BD4DF" mask="url(#mask-2)" points="66.3261652 134.954145 132.9129 134.954145 132.9129 123.871054 66.3261652 123.871054"></polygon>
                                <polygon id="Fill-44" fill="#FFFFFF" mask="url(#mask-2)" points="98.1599342 133.566141 94.6740507 130.077133 95.8825177 128.867583 98.1660894 131.153202 102.854285 126.501876 104.058648 127.717587"></polygon>
                                <path d="M106.781494,68.9774074 C108.102806,70.3471354 108.065875,72.5300753 106.697374,73.8525713 C105.328872,75.1750673 103.147887,75.1381031 101.824523,73.7683751 C100.503211,72.3986471 100.542194,70.2157073 101.910696,68.8932113 C103.279197,67.5686617 105.460183,67.6076794 106.781494,68.9774074" id="Fill-45" fill="#FFFFFF" mask="url(#mask-2)"></path>
                                <path d="M101.484347,78.5369589 C99.8368103,79.7321338 98.4806191,79.0010646 97.9512736,78.6067801 C98.6201365,79.7280267 98.5955157,81.1429331 97.8876701,82.2415905 C98.4313776,81.8657881 99.8121896,81.1819509 101.41664,82.4346257 C100.63288,81.2497185 100.659553,79.6931161 101.484347,78.5369589" id="Fill-46" fill="#DDDDDD" mask="url(#mask-2)"></path>
                                <path d="M96.9153568,77.5120245 C95.8956487,75.9882791 96.4762874,74.7397114 96.8784258,74.1667667 C95.7869072,74.7643542 94.4430263,74.7232829 93.3884388,74.0558742 C93.7639048,74.6678367 94.2911985,76.0108683 93.0458005,77.528453 C94.2111812,76.7275626 95.7520279,76.7275626 96.9153568,77.5120245" id="Fill-47" fill="#DDDDDD" mask="url(#mask-2)"></path>
                                <path d="M97.9506581,78.6069855 C97.8172958,78.3831469 97.6572612,78.1716296 97.4705541,77.9765409 C97.298209,77.7999343 97.1115019,77.6438634 96.9145361,77.5124352 C95.7512072,76.7259197 94.2103605,76.7279733 93.0449798,77.5288637 C92.8890486,77.6356491 92.7392726,77.7568095 92.5997551,77.8923448 C91.2312535,79.2148408 91.1922707,81.3977806 92.5135826,82.7675086 C93.8348945,84.1372366 96.0158799,84.1762543 97.3843815,82.8537583 C97.5792956,82.6648303 97.7475371,82.4594738 97.8870545,82.2397423 C98.5949002,81.1431385 98.6195209,79.7282321 97.9506581,78.6069855" id="Fill-48" fill="#FFFFFF" mask="url(#mask-2)"></path>
                                <path d="M97.7048612,68.7449439 C96.3835493,67.3752159 94.202564,67.3361981 92.8340623,68.6607477 C91.4655607,69.9832437 91.4265779,72.1661835 92.7478898,73.5359115 C92.9448556,73.7392145 93.1602868,73.9117139 93.3880285,74.0554635 C94.4446677,74.7228722 95.7864969,74.7639435 96.8780154,74.166356 C97.1426881,74.0205529 97.3929988,73.8398392 97.6207404,73.6201077 C98.9892421,72.2976117 99.0261731,70.1146719 97.7048612,68.7449439" id="Fill-49" fill="#FFFFFF" mask="url(#mask-2)"></path>
                                <path d="M106.769389,78.1400047 C105.448077,76.7702767 103.267092,76.731259 101.89859,78.0558086 C101.742659,78.2057188 101.605193,78.3679505 101.484142,78.5363428 C100.661399,79.6945536 100.632675,81.2491025 101.416435,82.4340096 C101.531331,82.6085626 101.662642,82.7749014 101.812418,82.9309724 C103.135781,84.3007004 105.316767,84.3376646 106.685268,83.0151686 C108.05377,81.6926726 108.090701,79.5097327 106.769389,78.1400047" id="Fill-50" fill="#FFFFFF" mask="url(#mask-2)"></path>
                                <path d="M115.872285,5.00597593 L125.42102,5.00597593" id="Stroke-51" stroke="#CAF8F9" stroke-width="2.4192" mask="url(#mask-2)"></path>
                                <path d="M120.646242,9.78400612 L120.646242,0.228767165" id="Stroke-52" stroke="#CAF8F9" stroke-width="2.4192" mask="url(#mask-2)"></path>
                                <path d="M113.697454,5.00597593 L109.479105,5.00597593" id="Stroke-53" stroke="#CAF8F9" stroke-width="2.4192" mask="url(#mask-2)"></path>
                                <path d="M106.433932,5.00597593 L102.215582,5.00597593" id="Stroke-54" stroke="#CAF8F9" stroke-width="2.4192" mask="url(#mask-2)"></path>
                                <path d="M62.3884916,5.00597593 L99.1738975,5.00597593" id="Stroke-55" stroke="#CAF8F9" stroke-width="2.4192" mask="url(#mask-2)"></path>
                                <polygon id="Fill-56" fill="#F3FDFE" mask="url(#mask-2)" points="24.1324081 170.944929 108.142405 170.944929 108.142405 148.807496 24.1324081 148.807496"></polygon>
                                <polygon id="Fill-57" fill="#E1E8EF" mask="url(#mask-2)" points="29.1681658 153.848999 108.143225 153.848999 108.143225 148.807496 24.131177 148.807496 24.131177 170.944929 29.1681658 170.944929"></polygon>
                                <polygon id="Stroke-58" stroke="#4BD4DF" stroke-width="2.4192" mask="url(#mask-2)" points="24.1324081 170.944929 108.142405 170.944929 108.142405 148.807496 24.1324081 148.807496"></polygon>
                                <polygon id="Fill-59" fill="#4BD4DF" mask="url(#mask-2)" points="38.9992189 164.079861 40.1481858 164.079861 40.1481858 157.352381 38.9992189 157.352381"></polygon>
                                <polygon id="Fill-60" fill="#4BD4DF" mask="url(#mask-2)" points="36.2109225 161.291119 42.9344305 161.291119 42.9344305 160.141123 36.2109225 160.141123"></polygon>
                                <polygon id="Fill-61" fill="#4BD4DF" mask="url(#mask-2)" points="41.5439754 163.501988 36.7901249 158.743877 37.6026086 157.930665 42.3564591 162.688776"></polygon>
                                <polygon id="Fill-62" fill="#4BD4DF" mask="url(#mask-2)" points="37.6032241 163.501988 36.7907404 162.688776 41.5445909 157.930665 42.3570746 158.743877"></polygon>
                                <polygon id="Fill-63" fill="#4BD4DF" mask="url(#mask-2)" points="52.2718381 164.079861 53.420805 164.079861 53.420805 157.352381 52.2718381 157.352381"></polygon>
                                <polygon id="Fill-64" fill="#4BD4DF" mask="url(#mask-2)" points="49.4855934 161.291119 56.2091014 161.291119 56.2091014 160.141123 49.4855934 160.141123"></polygon>
                                <polygon id="Fill-65" fill="#4BD4DF" mask="url(#mask-2)" points="54.8172101 163.501988 50.0633596 158.743877 50.8758434 157.930665 55.6296939 162.688776"></polygon>
                                <polygon id="Fill-66" fill="#4BD4DF" mask="url(#mask-2)" points="50.8764589 163.501988 50.0639752 162.688776 54.8178257 157.930665 55.6303094 158.743877"></polygon>
                                <polygon id="Fill-67" fill="#4BD4DF" mask="url(#mask-2)" points="65.5444574 164.079861 66.6934243 164.079861 66.6934243 157.352381 65.5444574 157.352381"></polygon>
                                <polygon id="Fill-68" fill="#4BD4DF" mask="url(#mask-2)" points="62.7582127 161.291119 69.4817207 161.291119 69.4817207 160.141123 62.7582127 160.141123"></polygon>
                                <polygon id="Fill-69" fill="#4BD4DF" mask="url(#mask-2)" points="68.0900346 163.501988 63.3361841 158.743877 64.1486678 157.930665 68.9025183 162.688776"></polygon>
                                <polygon id="Fill-70" fill="#4BD4DF" mask="url(#mask-2)" points="64.1492833 163.501988 63.3367996 162.688776 68.0906501 157.930665 68.9031338 158.743877"></polygon>
                                <polygon id="Fill-71" fill="#4BD4DF" mask="url(#mask-2)" points="78.8191284 164.079861 79.9680953 164.079861 79.9680953 157.352381 78.8191284 157.352381"></polygon>
                                <polygon id="Fill-72" fill="#4BD4DF" mask="url(#mask-2)" points="76.0328837 161.291119 82.75434 161.291119 82.75434 160.141123 76.0328837 160.141123"></polygon>
                                <polygon id="Fill-73" fill="#4BD4DF" mask="url(#mask-2)" points="81.3632693 163.501988 76.6094189 158.743877 77.4219026 157.930665 82.1757531 162.688776"></polygon>
                                <polygon id="Fill-74" fill="#4BD4DF" mask="url(#mask-2)" points="77.4223129 163.501988 76.6098292 162.688776 81.3636797 157.930665 82.1761634 158.743877"></polygon>
                                <polygon id="Fill-75" fill="#4BD4DF" mask="url(#mask-2)" points="92.0917476 164.079861 93.2407145 164.079861 93.2407145 157.352381 92.0917476 157.352381"></polygon>
                                <polygon id="Fill-76" fill="#4BD4DF" mask="url(#mask-2)" points="89.3034512 161.291119 96.0269592 161.291119 96.0269592 160.141123 89.3034512 160.141123"></polygon>
                                <polygon id="Fill-77" fill="#4BD4DF" mask="url(#mask-2)" points="94.636299 163.501988 89.8824485 158.743877 90.6949322 157.930665 95.4487827 162.688776"></polygon>
                                <polygon id="Fill-78" fill="#4BD4DF" mask="url(#mask-2)" points="90.6955477 163.501988 89.883064 162.688776 94.6369145 157.930665 95.4493982 158.743877"></polygon>
                                <polygon id="Fill-79" fill="#BCBEC0" mask="url(#mask-2)" points="121.142144 113.17814 156.643169 113.17814 156.643169 109.222973 121.142144 109.222973"></polygon>
                                <path d="M164.292211,130.194392 L153.41806,130.194392 L153.41806,97.0601171 C153.41806,88.4474646 146.419621,81.4427537 137.81468,81.4427537 C129.209738,81.4427537 122.211299,88.4474646 122.211299,97.0601171 L122.211299,130.194392 L111.337148,130.194392 L111.337148,97.0601171 C111.337148,82.4469471 123.214593,70.558858 137.81468,70.558858 C152.414766,70.558858 164.292211,82.4469471 164.292211,97.0601171 L164.292211,130.194392 Z" id="Fill-80" fill="#F1F2F2" mask="url(#mask-2)"></path>
                                <path d="M153.418471,93.4548781 C153.418471,84.8422255 146.41798,77.8375146 137.813038,77.8375146 C129.210149,77.8375146 122.211709,84.8422255 122.211709,93.4548781 L122.211709,97.0609386 C122.211709,88.4482861 129.210149,81.4415215 137.813038,81.4415215 C146.41798,81.4415215 153.418471,88.4482861 153.418471,97.0609386 L153.418471,93.4548781 Z" id="Fill-81" fill="#E1E8EF" mask="url(#mask-2)"></path>
                                <polygon id="Fill-82" fill="#A7A9AC" mask="url(#mask-2)" points="111.336943 130.193981 122.211094 130.193981 122.211094 126.587921 111.336943 126.587921"></polygon>
                                <polygon id="Fill-83" fill="#A7A9AC" mask="url(#mask-2)" points="153.417855 130.193981 164.292006 130.193981 164.292006 126.587921 153.417855 126.587921"></polygon>
                                <path d="M137.813859,70.5584473 C123.213773,70.5584473 111.338379,82.4465363 111.338379,97.0597064 L111.338379,102.468797 C111.338379,87.8535736 123.213773,75.9654845 137.813859,75.9654845 C152.413945,75.9654845 164.291391,87.8535736 164.291391,102.468797 L164.291391,97.0597064 C164.291391,82.4465363 152.413945,70.5584473 137.813859,70.5584473" id="Fill-84" fill="#FFFFFF" mask="url(#mask-2)"></path>
                                <path d="M164.292211,130.194392 L153.41806,130.194392 L153.41806,97.0601171 C153.41806,88.4474646 146.419621,81.4427537 137.81468,81.4427537 C129.209738,81.4427537 122.211299,88.4474646 122.211299,97.0601171 L122.211299,130.194392 L111.337148,130.194392 L111.337148,97.0601171 C111.337148,82.4469471 123.214593,70.558858 137.81468,70.558858 C152.414766,70.558858 164.292211,82.4469471 164.292211,97.0601171 L164.292211,130.194392 Z" id="Stroke-85" stroke="#4BD4DF" stroke-width="2.4192" mask="url(#mask-2)"></path>
                                <path d="M166.908368,170.944929 L108.239246,170.944929 C107.110797,170.944929 106.18752,170.020825 106.18752,168.891364 L106.18752,110.169667 C106.18752,109.040206 107.110797,108.116102 108.239246,108.116102 L166.908368,108.116102 C168.036817,108.116102 168.960094,109.040206 168.960094,110.169667 L168.960094,168.891364 C168.960094,170.020825 168.036817,170.944929 166.908368,170.944929" id="Fill-86" fill="#4BD4DF" mask="url(#mask-2)"></path>
                                <path d="M167.148009,108.116307 L162.65678,108.116307 L162.65678,162.821231 C162.65678,163.819263 161.840193,164.636582 160.845105,164.636582 L106.187109,164.636582 L106.187109,169.131837 C106.187109,170.127816 107.003696,170.945135 107.998784,170.945135 L167.148009,170.945135 C168.145149,170.945135 168.959684,170.127816 168.959684,169.131837 L168.959684,109.929605 C168.959684,108.931572 168.145149,108.116307 167.148009,108.116307" id="Fill-87" fill="#E1E8EF" opacity="0.245256696" mask="url(#mask-2)"></path>
                                <path d="M167.148009,170.944929 C168.145149,170.944929 168.959684,170.129664 168.959684,169.131631 L168.959684,109.9294 C168.959684,108.933421 168.145149,108.116102 167.148009,108.116102 L161.103623,108.116102 L115.190086,170.944929 L167.148009,170.944929 Z" id="Fill-88" fill="#FFFFFF" opacity="0.163002232" mask="url(#mask-2)"></path>
                                <path d="M166.908368,170.944929 L108.239246,170.944929 C107.110797,170.944929 106.18752,170.020825 106.18752,168.891364 L106.18752,110.169667 C106.18752,109.040206 107.110797,108.116102 108.239246,108.116102 L166.908368,108.116102 C168.036817,108.116102 168.960094,109.040206 168.960094,110.169667 L168.960094,168.891364 C168.960094,170.020825 168.036817,170.944929 166.908368,170.944929 Z" id="Stroke-89" stroke="#4BD4DF" stroke-width="2.4192" mask="url(#mask-2)"></path>
                                <path d="M145.26573,131.744218 C145.26573,135.997151 141.822933,139.443034 137.573807,139.443034 C133.324681,139.443034 129.881884,135.997151 129.881884,131.744218 C129.881884,127.493338 133.324681,124.045402 137.573807,124.045402 C141.822933,124.045402 145.26573,127.493338 145.26573,131.744218" id="Fill-90" fill="#F3FDFE" mask="url(#mask-2)"></path>
                                <path d="M137.573807,154.038132 C135.694425,154.038132 134.155631,152.497958 134.155631,150.616893 L134.155631,135.646402 C134.155631,133.765336 135.694425,132.225163 137.573807,132.225163 C139.453189,132.225163 140.991983,133.765336 140.991983,135.646402 L140.991983,150.616893 C140.991983,152.497958 139.453189,154.038132 137.573807,154.038132" id="Fill-91" fill="#F3FDFE" mask="url(#mask-2)"></path>
                                <path d="M19.009452,56.1413927 C19.009452,58.1929043 17.3475534,59.8542386 15.2999303,59.8542386 C13.2502554,59.8542386 11.5883569,58.1929043 11.5883569,56.1413927 C11.5883569,54.089881 13.2502554,52.4264932 15.2999303,52.4264932 C17.3475534,52.4264932 19.009452,54.089881 19.009452,56.1413927 Z" id="Stroke-92" stroke="#CAF8F9" stroke-width="2.4192" mask="url(#mask-2)"></path>
                                <path d="M162.565683,21.8388447 C162.565683,23.8903563 160.903785,25.5516906 158.856162,25.5516906 C156.806487,25.5516906 155.144588,23.8903563 155.144588,21.8388447 C155.144588,19.787333 156.806487,18.1239452 158.856162,18.1239452 C160.903785,18.1239452 162.565683,19.787333 162.565683,21.8388447 Z" id="Stroke-93" stroke="#CAF8F9" stroke-width="2.4192" mask="url(#mask-2)"></path>
                            </g>
                        </g>
                    </g>
                </g>
            </g>
        </g>
    </g>
</svg>